<svg xmlns="http://www.w3.org/2000/svg" viewBox="0 0 300 200"><defs><style>.cls-1{font-size:113.13px;font-family:MyriadPro-Regular, Myriad Pro;}.cls-2{letter-spacing:-0.04em;}.cls-3{fill:none;}</style></defs><g id="Layer_2" data-name="Layer 2"><g id="Layer_1-2" data-name="Layer 1"><text class="cls-1" transform="translate(11.04 106.68)"><tspan class="cls-2">L</tspan><tspan x="48.98" y="0">OGO</tspan></text><polygon points="58.83 165.82 41.76 161.05 28.16 172.41 27.42 154.7 12.42 145.27 29.03 139.1 33.36 121.91 44.37 135.8 62.05 134.61 52.24 149.37 58.83 165.82"/><polygon points="111.83 165.82 94.76 161.05 81.16 172.41 80.42 154.7 65.42 145.27 82.03 139.1 86.36 121.91 97.37 135.8 115.05 134.61 105.24 149.37 111.83 165.82"/><polygon points="164.83 165.82 147.76 161.05 134.16 172.41 133.42 154.7 118.42 145.27 135.03 139.1 139.36 121.91 150.37 135.8 168.05 134.61 158.24 149.37 164.83 165.82"/><polygon points="217.83 165.82 200.76 161.05 187.16 172.41 186.42 154.7 171.42 145.27 188.03 139.1 192.36 121.91 203.37 135.8 221.05 134.61 211.24 149.37 217.83 165.82"/><polygon points="270.83 165.82 253.76 161.05 240.16 172.41 239.42 154.7 224.42 145.27 241.03 139.1 245.36 121.91 256.37 135.8 274.05 134.61 264.24 149.37 270.83 165.82"/><rect class="cls-3" width="300" height="200"/></g></g></svg>